<svg xmlns="http://www.w3.org/2000/svg" width="151" height="97" viewBox="0 0 151 97">
    <g fill="none" fill-rule="evenodd">
        <path fill="#F5F7FA" d="M0 16.418c0-3.322 2.699-6.015 6.03-6.015h137.03c3.33 0 6.029 2.686 6.029 6.015v73.037c0 3.323-2.7 6.016-6.03 6.016H6.03C2.7 95.47 0 92.784 0 89.455V16.418z"/>
        <g>
            <g>
                <path fill="#F9D5CB" d="M2.124 0.017L2.598 3.01 1.264 4.083 0.416 0.503z" transform="translate(28.236 32.694) translate(17.662 56.127)"/>
                <path fill="#313131" d="M.303 2.885c-.05.45-.05.786 0 .986.063.249.187.598.387 1.06.287-.075 2.894-.711 7.82-1.909.038-.723-.162-1.06-.623-.997-.45.05-.823.1-1.123.124l-4.028-.736c-.075-.012-.15.038-.163.113l-.1.623c-.361.287-.66.462-.922.524-.212.05-.512.038-.91-.037-.15-.025-.3.075-.338.224v.025z" transform="translate(28.236 32.694) translate(17.662 56.127)"/>
            </g>
            <g fill="#313131" transform="translate(28.236 32.694) translate(7.988 23.497)">
                <path d="M.374 1.49s2.008 10.863 4.49 19.045l6.274-1.484S9.379 2.201 6.648.005L.374 1.49zM11.126 19.063s.898 14.307 1.122 14.968l-2.02.461s-4.84-11.687-5.376-13.944l6.274-1.485z"/>
                <circle cx="7.982" cy="19.749" r="3.218"/>
            </g>
            <g>
                <path fill="#F9D5CB" d="M3.809 0.453L2.787 3.309 1.115 3.621 2.063 0.066z" transform="translate(28.236 32.694) translate(0 56.127)"/>
                <path fill="#313131" d="M.828 2.112c-.261.374-.424.661-.473.86-.063.25-.125.624-.163 1.123.287.075 2.882.76 7.783 2.046.374-.612.362-1.01-.062-1.173-.424-.162-.773-.312-1.048-.436l-3.193-2.57c-.062-.05-.15-.037-.2.025l-.386.5c-.449.086-.81.086-1.06.024-.2-.05-.462-.212-.786-.474-.125-.1-.3-.087-.399.037 0 .025-.013.025-.013.038z" transform="translate(28.236 32.694) translate(0 56.127)"/>
            </g>
            <g fill="#3F3E3E" transform="translate(28.236 32.694) translate(1.448 24.001)">
                <path d="M3.808.287s-1.222 10.976-1.21 19.532l6.424.4s3.193-16.64 1.21-19.533l-6.424-.4z"/>
                <path d="M8.885 20.929S2.112 33.464 1.962 34.138l-1.896-.574S2.05 21.129 2.76 18.934l6.125 1.995z"/>
                <circle cx="5.829" cy="19.881" r="3.218"/>
            </g>
            <g transform="translate(28.236 32.694) translate(14.224 8.73)">
                <path fill="#F9D5CB" d="M18.734 14.996c-.536-.499-1.073-1.06-.96-1.297.112-.237.636-.112.748-.486.075-.25-.773-.35-2.545-.287L12 11.055l-.936 2.008 4.877 1.172c.973.624 1.87 1.06 2.707 1.31.237.012.623-.05.087-.549z"/>
                <path fill="#FDBE23" d="M8.993 8.673L5.35 9.895S3.13 5.193 1.746 4.257c0 0-2.769-2.644.075-4.004 0 0 2.245-.636 3.792 1.871 1.546 2.507 2.52 4.366 3.38 6.549z"/>
                <path fill="#FDBE23" d="M5.962 10.73s5.675 3.705 9.48 3.73l.436-1.385s-5.813-3.741-7.733-5.55L5.962 10.73z"/>
                <circle cx="7.109" cy="9.209" r="1.908" fill="#FDBE23"/>
            </g>
            <g fill-rule="nonzero">
                <path fill="#E2EAF0" d="M0.141 0.05L0.179 12.747 11.965 12.722 11.928 0.037z" transform="translate(28.236 32.694) translate(21.404 11.529)"/>
                <path fill="#BFCFDC" d="M3.659 4.964L3.671 9.591 8.822 9.579 8.81 4.952z" transform="translate(28.236 32.694) translate(21.404 11.529)"/>
                <path fill="#D4E0E9" d="M8.81 4.952l-5.151.012c0 .823.673 1.484 1.484 1.484h2.182c.824-.012 1.485-.673 1.485-1.496zM.141.05L.141 2.669 11.94 2.657 11.928.037z" transform="translate(28.236 32.694) translate(21.404 11.529)"/>
                <path fill="#BFCFDC" d="M8.598.037L8.598 2.657 9.334 2.657 9.321.037zM2.873.05L2.885 2.669 3.609 2.669 3.596.05z" transform="translate(28.236 32.694) translate(21.404 11.529)"/>
            </g>
            <path fill="#FDBE23" fill-rule="nonzero" d="M4.396 26.695c.898-2.407-.013-16.14 4.303-18.334 3.268-1.66 8.83-.125 10.477 1.696 1.72 1.896-1.61 9.155-1.51 15.142.063 3.879-4.702 3.13-4.801 3.118-.262-.038-6.873.574-8.47-1.622z" transform="translate(28.236 32.694)"/>
            <path fill="#10172A" fill-rule="nonzero" d="M16.058 21.806c-1.185-.823-3.181-2.183-4.528-3.03-.661-.412-2.183-3.106-2.594-3.755-.337-.524-.736 2.769.212 4.602.25.487.312 1.497 1.671 2.208 1.734.91 5.75 1.92 6.848 1.771.05-1.247-.088-1.559-.237-1.534-.487.062-.973.013-1.372-.262z" opacity=".15" transform="translate(28.236 32.694)"/>
            <g transform="translate(28.236 32.694) translate(6.437 9.034)">
                <path fill="#F9D5CB" d="M17.778 15.192c-.587-.437-1.198-.91-1.11-1.173.087-.25.61-.2.673-.586.037-.262-.81-.25-2.557.037l-4.178-1.36-.674 2.109 4.99.549c1.035.498 1.982.81 2.843.96.237 0 .611-.112.013-.536z"/>
                <path fill="#FDBE23" d="M7.076 10.103l-3.83.399S2.1 5.438.953 4.216c0 0-2.12-3.193.948-3.892 0 0 2.32-.137 3.293 2.657.973 2.794 1.509 4.802 1.883 7.122z"/>
                <path fill="#FDBE23" d="M4.22 12.21s6.086 2.957 9.878 2.508l.262-1.422s-6.236-2.981-8.382-4.528L4.22 12.211z"/>
                <circle cx="5.168" cy="10.564" r="1.908" fill="#FDBE23"/>
            </g>
            <g>
                <path fill="#313131" d="M5.014 5.23c.536-1.26.012-2.769-1.085-3.318-1.198-.598-2.732.1-3.255 1.397-.587 1.485.361 3.206 1.72 3.455.986.187 2.146-.411 2.62-1.534z" transform="translate(28.236 32.694) translate(9.235)"/>
                <g fill-rule="nonzero">
                    <path fill="#F9D5CB" d="M1.44 3.867l.124.124-.3 1.285c-.112.574-.386.71.15.96.15.075 1.248.587 1.747.175.162-.125.05-.723.087-.936.025-.087.025-.174.025-.274l-.013-.125C6.13 3.854 4.395.536 4.395.536c-.573-.885-7.184-.723-2.956 3.33z" transform="translate(28.236 32.694) translate(9.235) translate(1.791 2.798)"/>
                    <path fill="#0F2A47" d="M2.562 4.852c.1.125.362.449.698.623.025-.087.025-.174.025-.274l-.012-.125c-.35-.012-.586-.1-.711-.224z" opacity=".5" transform="translate(28.236 32.694) translate(9.235) translate(1.791 2.798)"/>
                </g>
                <path fill="#313131" d="M1.734 2.237c.162-.25.411-.562.823-.749h.012c.574-.25 1.235-.012 1.622-.025.848 0 .91-1.06 1.833-1.26C6.835.03 7.933.59 8.17 1.314c.361 1.16-1.41 2.932-2.944 2.72-.511-.075-.886-.35-1.123-.574-.087.075-.336.025-.523.25-.113.137-.262.286-.474.436-.05.025-.1.062-.15.1-.1.05-.225.012-.262-.1-.075-.2-.175-.287-.25-.324-.012 0-.062-.038-.137-.038-.212 0-.349.237-.411.337-.1.175-.312.536-.312.661-.05-.025-.112-.075-.162-.125-.15-.174-.05-.598-.05-.898.112-.112.25-.237.424-.324-.037-.025-.062-.05-.087-.075-.075-.125-.05-.312.05-.524l-.15-.037.125-.561z" transform="translate(28.236 32.694) translate(9.235)"/>
            </g>
        </g>
        <g fill-rule="nonzero">
            <g>
                <path fill="#E2EAF0" d="M56.08 95.424L0 95.476V6.326C0 2.833 2.076 0 4.641 0H51.44C54 0 56.08 2.83 56.08 6.325v89.099z" transform="translate(74.194) matrix(-1 0 0 1 57.17 0)"/>
                <g fill="#F5F7FA">
                    <path d="M3.49 0H.683C.304 0 0 .347 0 .777v3.818c0 .43.304.777.682.777h2.809c.378 0 .682-.347.682-.777V.777C4.173.347 3.865 0 3.49 0zM3.49 7.95H.683c-.378 0-.682.347-.682.777v3.819c0 .43.304.777.682.777h2.809c.378 0 .682-.347.682-.777V8.727c0-.43-.308-.776-.682-.776zM10.746 0H7.937c-.377 0-.682.347-.682.777v3.818c0 .43.305.777.682.777h2.81c.377 0 .681-.347.681-.777V.777c0-.43-.304-.777-.682-.777zM10.83 7.95H8.02c-.378 0-.682.347-.682.777v3.819c0 .43.304.777.682.777h2.809c.378 0 .682-.347.682-.777V8.727c0-.43-.304-.776-.682-.776zM18.002 0h-2.81c-.377 0-.681.347-.681.777v3.818c0 .43.304.777.682.777h2.809c.377 0 .682-.347.682-.777V.777c0-.43-.305-.777-.682-.777zM18.002 7.99h-2.81c-.377 0-.681.346-.681.776v3.818c0 .43.304.777.682.777h2.809c.377 0 .682-.347.682-.777V8.766c0-.43-.305-.777-.682-.777zM18.002 15.978h-2.81c-.377 0-.681.347-.681.777v3.819c0 .43.304.776.682.776h2.809c.377 0 .682-.346.682-.776v-3.819c0-.43-.305-.777-.682-.777zM25.261 15.976h-2.809c-.378 0-.682.346-.682.777v3.818c0 .43.304.777.682.777h2.809c.378 0 .682-.347.682-.777v-3.818c0-.43-.308-.777-.682-.777z" transform="translate(74.194) matrix(-1 0 0 1 57.17 0) matrix(-1 0 0 1 43.894 38.29)"/>
                </g>
                <g fill="#F5F7FA">
                    <path d="M3.49 7.988H.683c-.378 0-.682.347-.682.777v3.818c0 .43.304.777.682.777h2.809c.378 0 .682-.347.682-.777V8.765c0-.43-.308-.777-.682-.777zM3.49 15.976H.683c-.378 0-.682.346-.682.777v3.818c0 .43.304.777.682.777h2.809c.378 0 .682-.347.682-.777v-3.818c0-.43-.308-.777-.682-.777zM10.746 7.988H7.937c-.377 0-.682.347-.682.777v3.818c0 .43.305.777.682.777h2.81c.377 0 .681-.347.681-.777V8.765c0-.43-.304-.777-.682-.777zM10.746 15.976H7.937c-.377 0-.682.346-.682.777v3.818c0 .43.305.777.682.777h2.81c.377 0 .681-.347.681-.777v-3.818c0-.43-.304-.777-.682-.777zM18.002 0h-2.81c-.377 0-.681.347-.681.777v3.818c0 .43.304.777.682.777h2.809c.377 0 .682-.347.682-.777V.777c0-.43-.305-.777-.682-.777zM18.002 7.988h-2.81c-.377 0-.681.347-.681.777v3.818c0 .43.304.777.682.777h2.809c.377 0 .682-.347.682-.777V8.765c0-.43-.305-.777-.682-.777zM25.261 15.976h-2.809c-.378 0-.682.346-.682.777v3.818c0 .43.304.777.682.777h2.809c.378 0 .682-.347.682-.777v-3.818c0-.43-.308-.777-.682-.777z" transform="translate(74.194) matrix(-1 0 0 1 57.17 0) rotate(180 21.947 17.52)"/>
                </g>
            </g>
            <g>
                <path fill="#BFCFDC" d="M49.295 72.642L0 72.614V5.909C0 2.71 1.938.119 4.33.119L49.647 0c2.39 0 4.81 2.567 4.81 5.764l.024 61.692c.006 2.866-2.317 5.19-5.182 5.191-.002 0-.004 0-.005-.005z" transform="translate(74.194) translate(20.765 22.831)"/>
                <g fill="#F5F7FA">
                    <path d="M20.05 21.706h-2.983c-.391 0-.709.269-.709.6v3.099c0 .33.318.6.71.6h2.982c.391 0 .709-.27.709-.6v-3.099c0-.331-.318-.6-.71-.6zM3.765 10.853H.782c-.39 0-.708.269-.708.6v3.099c0 .33.317.6.708.6h2.983c.391 0 .709-.27.709-.6v-3.099c0-.331-.318-.6-.709-.6zM44.473 21.706H41.49c-.391 0-.709.269-.709.6v3.099c0 .33.318.6.71.6h2.982c.391 0 .709-.27.709-.6v-3.099c0-.331-.318-.6-.71-.6zM36.33 21.706h-2.982c-.391 0-.709.269-.709.6v3.099c0 .33.318.6.709.6h2.982c.392 0 .71-.27.71-.6v-3.099c0-.331-.318-.6-.71-.6zM28.192 21.706H25.21c-.39 0-.708.269-.708.6v3.099c0 .33.317.6.708.6h2.983c.391 0 .709-.27.709-.6v-3.099c0-.331-.318-.6-.709-.6zM36.33 10.853h-2.982c-.391 0-.709.269-.709.6v3.099c0 .33.318.6.709.6h2.982c.392 0 .71-.27.71-.6v-3.099c0-.331-.318-.6-.71-.6zM28.192 10.853H25.21c-.39 0-.708.269-.708.6v3.099c0 .33.317.6.708.6h2.983c.391 0 .709-.27.709-.6v-3.099c0-.331-.318-.6-.709-.6zM36.33.005h-2.982c-.391 0-.709.269-.709.6v3.099c0 .33.318.6.709.6h2.982c.392 0 .71-.27.71-.6V.605c0-.331-.318-.6-.71-.6zM20.05 10.853h-2.983c-.391 0-.709.269-.709.6v3.099c0 .33.318.6.71.6h2.982c.391 0 .709-.27.709-.6v-3.099c0-.331-.318-.6-.71-.6zM11.907 10.853H8.925c-.391 0-.71.269-.71.6v3.099c0 .33.319.6.71.6h2.982c.392 0 .71-.27.71-.6v-3.099c0-.331-.318-.6-.71-.6zM11.896 32.564H8.913c-.391 0-.709.27-.709.6v3.099c0 .331.318.6.71.6h2.982c.391 0 .709-.269.709-.6v-3.099c0-.33-.318-.6-.71-.6zM3.754 32.564H.77c-.391 0-.709.27-.709.6v3.099c0 .331.318.6.709.6h2.983c.39 0 .708-.269.708-.6v-3.099c0-.33-.317-.6-.708-.6zM11.896 21.711H8.913c-.391 0-.709.27-.709.6v3.099c0 .331.318.6.71.6h2.982c.391 0 .709-.269.709-.6V22.31c0-.33-.318-.6-.71-.6zM3.754 21.711H.77c-.391 0-.709.27-.709.6v3.099c0 .331.318.6.709.6h2.983c.39 0 .708-.269.708-.6V22.31c0-.33-.317-.6-.708-.6zM11.907.005H8.925c-.391 0-.71.269-.71.6v3.099c0 .33.319.6.71.6h2.982c.392 0 .71-.27.71-.6V.605c0-.331-.318-.6-.71-.6z" transform="translate(74.194) translate(20.765 22.831) translate(5.94 26.984)"/>
                </g>
            </g>
            <g transform="translate(74.194) translate(36.694 9.135)">
                <path fill="#FF5B5D" d="M13.032 0C5.835 0 0 5.835 0 13.032c0 2.235.565 4.34 1.557 6.179-.013 0 11.452 18.758 11.452 18.758l10.526-17.22c1.59-2.16 2.53-4.827 2.53-7.717C26.06 5.835 20.228 0 13.031 0zm0 18.702c-3.564 0-6.453-2.89-6.453-6.453 0-3.564 2.89-6.454 6.453-6.454 3.564 0 6.453 2.89 6.453 6.454 0 3.563-2.889 6.453-6.453 6.453z"/>
                <circle cx="13.023" cy="12.222" r="6.453" fill="#FFF" transform="rotate(-58.286 13.023 12.222)"/>
            </g>
        </g>
    </g>
</svg>
