<?xml version="1.0" encoding="iso-8859-1"?>
<!-- Uploaded to: SVG Repo, www.svgrepo.com, Generator: SVG Repo Mixer Tools -->
<svg height="800px" width="800px" version="1.1" id="Layer_1" xmlns="http://www.w3.org/2000/svg" xmlns:xlink="http://www.w3.org/1999/xlink" 
	 viewBox="0 0 512 512" xml:space="preserve">
<path style="fill:#003C61;" d="M437.02,74.98C388.667,26.628,324.25,0,255.87,0S123.333,26.628,74.98,74.98
	C26.628,123.333,0,187.62,0,256s26.628,132.667,74.98,181.02C123.333,485.372,187.49,512,255.87,512s132.797-26.628,181.15-74.98
	C485.372,388.667,512,324.38,512,256S485.372,123.333,437.02,74.98z"/>
<path style="fill:#0066A6;" d="M255.87,0.003C187.58,0.067,123.275,26.686,74.98,74.98C26.628,123.333,0,187.62,0,256
	s26.628,132.667,74.98,181.02c48.295,48.294,112.6,74.915,180.89,74.978V0.003z"/>
<path style="fill:#005A95;" d="M398.454,113.546c-38.051-38.052-88.772-59.007-142.584-59.007s-104.273,20.955-142.325,59.007
	C75.494,151.597,54.539,202.188,54.539,256s20.955,104.403,59.007,142.454c38.05,38.052,88.511,59.007,142.324,59.007
	s104.534-20.955,142.584-59.007c38.052-38.051,59.007-88.642,59.007-142.454S436.506,151.597,398.454,113.546z"/>
<path style="fill:#31AAEF;" d="M255.87,54.542c-53.721,0.063-104.331,21.01-142.325,59.004
	C75.494,151.597,54.539,202.188,54.539,256s20.955,104.403,59.006,142.454c37.994,37.993,88.603,58.94,142.325,59.004V54.542z"/>
<path style="fill:#79C6BF;" d="M225.38,368.767c-10.332,0-20.241-4.105-27.547-11.41l-68.094-68.094
	c-15.213-15.213-15.213-39.879,0-55.093c15.214-15.212,39.88-15.213,55.093,0l40.547,40.547l101.936-101.936
	c15.214-15.213,39.879-15.213,55.093,0c15.213,15.213,15.213,39.879,0,55.092L252.926,357.357
	C245.621,364.663,235.711,368.767,225.38,368.767z"/>
<path style="fill:#E4F3F6;" d="M255.87,244.227l-30.491,30.491l-40.547-40.547c-15.213-15.213-39.879-15.213-55.093,0
	c-15.213,15.213-15.213,39.879,0,55.093l68.094,68.094c7.306,7.306,17.214,11.41,27.547,11.41c10.331,0,20.241-4.105,27.547-11.41
	l2.944-2.944L255.87,244.227L255.87,244.227z"/>
</svg>