<?xml version="1.0" encoding="utf-8"?><!-- Uploaded to: SVG Repo, www.svgrepo.com, Generator: SVG Repo Mixer Tools -->
<svg fill="#000000" width="800px" height="800px" viewBox="0 0 24 24" id="bedroom" data-name="Flat Color" xmlns="http://www.w3.org/2000/svg" class="icon flat-color"><path id="secondary" d="M5,16v2a1,1,0,0,1-2,0V16a1,1,0,0,1,2,0Zm15-1a1,1,0,0,0-1,1v2a1,1,0,0,0,2,0V16A1,1,0,0,0,20,15Zm0-3V7a2,2,0,0,0-2-2H6A2,2,0,0,0,4,7v5a1,1,0,0,0,1,1H19A1,1,0,0,0,20,12Z" style="fill: rgb(44, 169, 188);"></path><path id="primary" d="M20,11H4a2,2,0,0,0-2,2v3a1,1,0,0,0,1,1H21a1,1,0,0,0,1-1V13A2,2,0,0,0,20,11Z" style="fill: rgb(0, 0, 0);"></path></svg>