<?xml version="1.0" encoding="utf-8"?><!-- Uploaded to: SVG Repo, www.svgrepo.com, Generator: SVG Repo Mixer Tools -->
<svg fill="#000000" width="800px" height="800px" viewBox="0 0 24 24" id="desk-4" data-name="Flat Color" xmlns="http://www.w3.org/2000/svg" class="icon flat-color"><path id="secondary" d="M20,19a1,1,0,0,1-1-1V10a1,1,0,0,1,2,0v8A1,1,0,0,1,20,19ZM4,19a1,1,0,0,1-1-1V6A1,1,0,0,1,5,6V18A1,1,0,0,1,4,19Z" style="fill: rgb(44, 169, 188);"></path><path id="primary" d="M20,5H13a1,1,0,0,0-1,1v8a1,1,0,0,0,1,1h8V6A1,1,0,0,0,20,5Z" style="fill: rgb(0, 0, 0);"></path><path id="primary-2" data-name="primary" d="M12,5H4A1,1,0,0,0,3,6v5h9a1,1,0,0,0,1-1V6A1,1,0,0,0,12,5Z" style="fill: rgb(0, 0, 0);"></path><path id="secondary-2" data-name="secondary" d="M21,7H3A1,1,0,0,1,3,5H21a1,1,0,0,1,0,2Z" style="fill: rgb(44, 169, 188);"></path></svg>