<?xml version="1.0" ?>
<!DOCTYPE svg  PUBLIC '-//W3C//DTD SVG 1.1//EN'  'http://www.w3.org/Graphics/SVG/1.1/DTD/svg11.dtd'>
<!-- Uploaded to: SVG Repo, www.svgrepo.com, Generator: SVG Repo Mixer Tools -->
<svg fill="#000000" width="800px" height="800px" viewBox="0 0 32 32" style="fill-rule:evenodd;clip-rule:evenodd;stroke-linejoin:round;stroke-miterlimit:2;" version="1.1" xml:space="preserve" xmlns="http://www.w3.org/2000/svg" xmlns:serif="http://www.serif.com/" xmlns:xlink="http://www.w3.org/1999/xlink">
<g transform="matrix(1,0,0,1,-192,-96)">
<g transform="matrix(1,0,0,1,1,0)">
<path d="M215.972,99C216.508,99 217.02,99.214 217.396,99.596C217.772,99.977 217.98,100.492 217.972,101.027C217.953,102.41 217.929,104.174 217.915,105.215C217.907,105.777 217.663,106.31 217.243,106.683C215.598,108.143 211.33,111.932 209.672,113.403C209.245,113.783 209,114.327 209,114.899C209,116.772 209,121.041 209,122.5C209,122.815 208.852,123.111 208.6,123.3C208.132,123.651 207.329,124.253 206.6,124.8C206.297,125.027 205.892,125.064 205.553,124.894C205.214,124.725 205,124.379 205,124C205,121.359 205,116.817 205,114.898C205,114.327 204.756,113.783 204.329,113.403C202.66,111.92 198.34,108.08 196.671,106.597C196.244,106.217 196,105.673 196,105.102C196,104.072 196,102.352 196,101C196,100.47 196.211,99.961 196.586,99.586C196.961,99.211 197.47,99 198,99C202.174,99 211.774,99 215.972,99Z" style="fill:rgb(144,224,239);"/>
</g>
<g transform="matrix(0.956808,0,0,10.2921,8.55204,-974.673)">
<path d="M198,105L218.903,105" style="fill:none;"/>
</g>
<path d="M216.972,98L199,98C198.204,98 197.441,98.316 196.879,98.879C196.316,99.441 196,100.204 196,101L196,105.102C196,105.959 196.366,106.775 197.007,107.344L204.664,114.151C204.878,114.34 205,114.612 205,114.898L205,124C205,124.758 205.428,125.45 206.106,125.789C206.783,126.128 207.594,126.055 208.2,125.6C208.929,125.053 209.732,124.451 210.2,124.1C210.704,123.722 211,123.13 211,122.5L211,114.899C211,114.613 211.122,114.341 211.336,114.151L218.907,107.431C219.537,106.871 219.903,106.072 219.915,105.228L219.972,101.041C219.983,100.238 219.672,99.465 219.108,98.893C218.544,98.322 217.775,98 216.972,98ZM216.379,107L210.008,112.655C209.367,113.225 209,114.041 209,114.899L209,122.5L207,124C207,121.359 207,116.817 207,114.898C207,114.041 206.634,113.225 205.993,112.656L199.63,107L216.379,107ZM217.918,105L198,105L198,101C198,100.735 198.105,100.48 198.293,100.293C198.48,100.105 198.735,100 199,100L216.972,100C217.24,100 217.496,100.107 217.684,100.298C217.872,100.488 217.976,100.746 217.972,101.014L217.918,105Z" style="fill:rgb(25,144,167);"/>
</g>
</svg>