<?xml version="1.0" encoding="utf-8"?><!-- Uploaded to: SVG Repo, www.svgrepo.com, Generator: SVG Repo Mixer Tools -->
<svg fill="#000000" width="800px" height="800px" viewBox="0 0 24 24" id="mobile-payment-euro" data-name="Flat Color" xmlns="http://www.w3.org/2000/svg" class="icon flat-color"><rect id="primary" x="4" y="2" width="14" height="20" rx="2" style="fill: rgb(0, 0, 0);"></rect><path id="secondary" d="M14,2l-.31,1.24a1,1,0,0,1-1,.76H9.28a1,1,0,0,1-1-.76L8,2M18.33,15.49A2,2,0,0,1,17,16a2,2,0,0,1-1.73-1H16a1,1,0,0,0,0-2h-.73A2,2,0,0,1,17,12a2,2,0,0,1,1.33.51,1,1,0,0,0,1.41-.07A1,1,0,0,0,19.67,11a4,4,0,0,0-6.53,2H13a1,1,0,0,0,0,2h.14a4,4,0,0,0,6.53,2,1,1,0,0,0,.07-1.42A1,1,0,0,0,18.33,15.49Z" style="fill: rgb(44, 169, 188);"></path></svg>