<?xml version="1.0" encoding="utf-8"?><!-- Uploaded to: SVG Repo, www.svgrepo.com, Generator: SVG Repo Mixer Tools -->
<svg fill="#000000" width="800px" height="800px" viewBox="0 0 24 24" id="refrigerator" data-name="Flat Color" xmlns="http://www.w3.org/2000/svg" class="icon flat-color"><rect id="primary" x="5" y="2" width="14" height="20" rx="2" style="fill: rgb(0, 0, 0);"></rect><path id="secondary" d="M19,4v6H5V4A2,2,0,0,1,7,2H17A2,2,0,0,1,19,4ZM9,15V13a1,1,0,0,0-2,0v2a1,1,0,0,0,2,0Z" style="fill: rgb(44, 169, 188);"></path><path id="primary-2" data-name="primary" d="M8,8A1,1,0,0,1,7,7V5A1,1,0,0,1,9,5V7A1,1,0,0,1,8,8Z" style="fill: rgb(0, 0, 0);"></path></svg>