<?xml version="1.0" encoding="iso-8859-1"?>
<!-- Uploaded to: SVG Repo, www.svgrepo.com, Generator: SVG Repo Mixer Tools -->
<svg height="800px" width="800px" version="1.1" id="Layer_1" xmlns="http://www.w3.org/2000/svg" xmlns:xlink="http://www.w3.org/1999/xlink" 
	 viewBox="0 0 512 512" xml:space="preserve">
<circle style="fill:#6B7F9E;" cx="256" cy="256" r="256"/>
<path style="fill:#75BD80;" d="M35.189,72.137h351.743c14.076,0,25.512,10.703,25.512,23.753v135.184
	c0,13.049-11.436,23.753-25.512,23.753H35.189c-14.076,0-25.512-10.703-25.512-23.753V95.89
	C9.677,82.841,21.113,72.137,35.189,72.137z"/>
<path style="fill:#83CF8F;" d="M35.189,64.513h351.743c14.076,0,25.512,10.703,25.512,23.753V223.45
	c0,13.049-11.436,23.753-25.512,23.753H35.189c-14.076,0-25.512-10.703-25.512-23.753V88.266
	C9.677,75.216,21.113,64.513,35.189,64.513z"/>
<g>
	<path style="fill:#FFFFFF;" d="M87.973,97.21h267.436h17.301c4.252,0,7.771,3.519,7.771,7.771v28.884v89.879
		c0,4.252-3.372,7.624-7.624,7.771h-15.835h-1.759H41.054V212.6h315.821c2.053,0,4.399,0.147,4.399-2.786v-76.096v-15.102
		c0-1.32-1.026-2.493-2.346-2.786H87.679v23.459l-50.144-31.67l50.144-31.67v20.967L87.973,97.21z"/>
	<path style="fill:#FFFFFF;" d="M114.218,164.362c4.252-1.613,7.624-5.865,7.624-11.29c0-12.609-12.023-13.196-18.034-13.196
		c-4.692,0-9.237,0.44-12.316,0.88v45.159h10.41v-17.741h2.053c3.519,0,5.132,1.466,6.158,7.038
		c1.026,5.425,2.199,9.53,2.786,10.703h10.703c-0.88-1.759-2.199-7.918-3.372-12.756c-1.026-4.399-2.639-7.331-5.865-8.651v-0.293
		L114.218,164.362z M101.755,160.403v-12.316c0.586-0.147,1.759-0.293,3.372-0.293c2.493,0,6.305,1.026,6.305,6.158
		c0,3.666-2.493,6.451-6.891,6.451H101.755z M155.711,177.265H140.17v-10.703h13.929v-8.504H140.17v-9.237h14.662v-8.651h-25.072
		v45.746h25.952V177.265z M191.34,140.17h-31.23v9.09h10.41v36.655h10.41V149.26h10.41V140.17z M230.635,140.17h-10.41v27.711
		c0,7.331-2.346,10.117-6.305,10.117c-3.812,0-6.158-3.079-6.158-10.117V140.17h-10.41v26.392c0,13.196,5.278,19.94,16.422,19.94
		c10.997,0,16.861-6.745,16.861-19.794V140.17z M262.745,164.362c4.252-1.613,7.624-5.865,7.624-11.29
		c0-12.609-12.023-13.196-18.034-13.196c-4.692,0-9.237,0.44-12.316,0.88v45.159h10.41v-17.741h2.053
		c3.519,0,5.132,1.466,6.158,7.038c1.026,5.425,2.199,9.53,2.786,10.703h10.703c-0.88-1.759-2.199-7.918-3.372-12.756
		c-1.026-4.399-2.639-7.331-5.865-8.651v-0.293L262.745,164.362z M250.282,160.403v-12.316c0.586-0.147,1.759-0.293,3.372-0.293
		c2.493,0,6.305,1.026,6.305,6.158c0,3.666-2.493,6.451-6.891,6.451H250.282z M312.009,140.17h-9.384v10.85
		c0,7.624,0.293,14.809,0.88,20.087h-0.147c-1.759-4.545-4.252-10.41-6.305-14.515l-7.771-16.422H278.14v45.746h9.384v-11.29
		c0-8.211-0.293-15.102-0.586-20.527h0.293c1.613,4.692,4.252,10.703,6.451,15.102l7.918,16.568h10.41v-45.746V140.17z
		 M346.318,141.636c-2.199-1.026-5.572-2.053-9.97-2.053c-10.557,0-16.568,6.158-16.568,13.782c0,5.425,3.666,9.97,10.997,13.196
		c4.692,2.199,6.745,3.666,6.745,6.451s-2.199,4.545-6.451,4.545c-3.666,0-7.478-1.173-9.97-2.346l-1.759,8.797
		c2.199,1.173,6.745,2.346,11.29,2.346c10.997,0,17.448-5.865,17.448-14.222c0-5.718-3.079-10.117-10.263-13.489
		c-5.572-2.493-7.478-3.812-7.478-6.305c0-2.199,1.906-4.252,6.011-4.252c3.666,0,6.451,1.026,8.064,1.906l1.906-8.651V141.636z"/>
</g>
<path style="fill:#FED298;" d="M265.091,398.955l-30.351-31.084l-38.855-29.471c-8.944-6.745-22.58-10.263-19.794-21.113
	c2.639-10.703,12.463-15.542,24.046-10.85l35.336,14.369l3.226-2.639v-67.446v-60.701c0-7.624,6.305-13.929,13.929-13.929l0,0
	c7.624,0,13.929,6.305,13.929,13.929v66.126h3.226v-11.143c0-7.624,6.305-13.929,13.929-13.929l0,0
	c7.624,0,13.929,6.305,13.929,13.929v11.143h3.226v-3.666c0-7.624,6.305-13.929,13.929-13.929l0,0
	c7.624,0,13.929,6.305,13.929,13.929v3.666h3.665c3.372-14.076,22.433-10.263,24.632,8.504l1.026,88.999l-9.09,27.418l2.346,75.51
	l-66.712,38.415l-15.542,0.586l-3.519-96.77L265.091,398.955z"/>
<polygon style="fill:#FFFFFF;" points="258.639,433.265 258.639,410.245 356.875,410.245 356.875,433.265 "/>
<path style="fill:#FF7069;" d="M250.575,511.853v-85.627h115.097l1.759,60.115c-33.723,16.422-71.551,25.512-111.578,25.512
	c-1.759,0-3.519,0-5.425,0H250.575z"/>
<g>
	<path style="fill:#FFFFFF;" d="M178.877,317.141c0.88,0.147,14.809,8.944,14.809,8.944l-4.252,7.771c0,0-11.29-6.158-13.929-10.41
		C174.332,321.54,176.092,317.288,178.877,317.141z"/>
	<path style="fill:#FFFFFF;" d="M261.572,184.742v13.489h-18.328v-13.489C243.244,179.611,261.572,179.611,261.572,184.742z"/>
</g>
</svg>